# xmcd
#
# Track frame offsets:
#	150
#	12467
#	26593
#	41504
#	50375
#	62500
#	75569
#	90847
#	104647
#	119028
#	133661
#	148340
#	162685
#	176881
#	191603
#	204129
#	218849
#	232920
#	243553
#	258701
#	272509
#	286982
# Disc length: 3974 seconds
# Revision: 1
# Processed by: cddbd v1.5.2PL0 Copyright (c) Steve Scherf et al.
#
# Submitted via: libkcddb 0.31
#
DISCID=450f8416
DTITLE=Ella Fitzerald - Une anthologie 1948 - 1955 - CD1
DYEAR=2006
DGENRE=Unknown
TTITLE0=Baby, it's cold outside
TTITLE1=Black coffee
TTITLE2=My happiness
TTITLE3=Somebody loves me
TTITLE4=In the evening
TTITLE5=Fairy tales
TTITLE6=I gotta have my baby back
TTITLE7=Soild as a rock
TTITLE8=I'll never be free
TTITLE9=Ain't noboby's buisness but my own
TTITLE10=Can anyone explain ?
TTITLE11=Dream a little dream of me
TTITLE12=Looking for a boy
TTITLE13=How long has this been going on ?
TTITLE14=Soon
TTITLE15=Someone to watch over me
TTITLE16=Smooth sailing
TTITLE17=Who walks in when I walk out ?
TTITLE18=Would you like to take a walk ?
TTITLE19=Air mail special
TTITLE20=Gee, but I'm glad to know you love me
TTITLE21=Goody goody
EXTD=
EXTT0=
EXTT1=
EXTT2=
EXTT3=
EXTT4=
EXTT5=
EXTT6=
EXTT7=
EXTT8=
EXTT9=
EXTT10=
EXTT11=
EXTT12=
EXTT13=
EXTT14=
EXTT15=
EXTT16=
EXTT17=
EXTT18=
EXTT19=
EXTT20=
EXTT21=
PLAYORDER=
